<svg width="2095" height="360" viewBox="0 0 2095 360" fill="none" xmlns="http://www.w3.org/2000/svg">
<path d="M259.004 180C259.004 273.407 201.058 340 139.502 340C77.9458 340 20.0001 273.407 20.0001 180C20.0001 86.5929 77.9458 20.0001 139.502 20.0001C201.058 20.0001 259.004 86.5929 259.004 180Z" stroke="#0B0A0A" stroke-width="40.0003"/>
<ellipse cx="175.511" cy="234" rx="76.5011" ry="99" fill="#0B0A0A"/>
<path d="M556 180C556 273.407 498.054 340 436.498 340C374.942 340 316.996 273.407 316.996 180C316.996 86.5929 374.942 20.0001 436.498 20.0001C498.054 20.0001 556 86.5929 556 180Z" stroke="#0B0A0A" stroke-width="40.0003"/>
<ellipse cx="471.497" cy="234" rx="76.5011" ry="99" fill="#0B0A0A"/>
<path d="M787.026 0C771.362 0 756.582 1.16779 742.685 3.50336C728.788 5.83892 715.976 9.302 704.248 13.8926C692.52 18.4027 681.997 24 672.679 30.6846C663.361 37.3691 655.448 45.1007 648.942 53.8792C642.435 62.6577 637.455 72.443 634.001 83.2349C630.547 93.9463 628.82 105.624 628.82 118.268C628.82 132.604 630.948 144.966 635.206 155.356C639.463 165.664 645.126 174.443 652.195 181.691C659.344 188.94 667.538 194.899 676.776 199.57C686.094 204.161 695.773 207.866 705.814 210.685C715.855 213.503 725.977 215.718 736.178 217.329C746.38 218.859 755.899 220.148 764.735 221.195L776.784 222.765C784.174 223.651 790.801 224.497 796.665 225.302C802.61 226.107 807.831 226.953 812.329 227.839C816.908 228.725 820.804 229.732 824.017 230.859C827.311 231.987 830.002 233.356 832.09 234.966C834.179 236.497 835.705 238.349 836.669 240.523C837.633 242.698 838.115 245.275 838.115 248.255C838.115 251.96 836.91 255.383 834.5 258.523C832.09 261.584 828.716 264.242 824.379 266.497C820.041 268.671 814.82 270.403 808.715 271.691C802.61 272.899 795.822 273.503 788.351 273.503C779.515 273.503 771.643 272.617 764.735 270.846C757.827 268.993 751.963 266.376 747.143 262.993C742.404 259.53 738.749 255.342 736.178 250.43C733.688 245.436 732.443 239.758 732.443 233.396H624C624 253.047 627.414 270.725 634.242 286.43C641.15 302.054 651.472 315.342 665.208 326.295C678.944 337.168 696.095 345.503 716.659 351.302C737.223 357.101 761.201 360 788.592 360C814.538 360 837.673 357.383 857.996 352.148C878.319 346.832 895.469 339.181 909.446 329.195C923.423 319.128 934.067 306.846 941.377 292.349C948.686 277.852 952.341 261.383 952.341 242.94C952.341 228.362 950.173 215.799 945.835 205.248C941.497 194.617 935.713 185.557 928.484 178.067C921.254 170.577 912.86 164.416 903.301 159.584C893.822 154.671 883.862 150.685 873.419 147.624C863.057 144.483 852.574 142.027 841.97 140.255C831.367 138.403 821.326 136.832 811.847 135.544L803.533 134.336C796.143 133.289 789.516 132.322 783.652 131.436C777.869 130.55 772.728 129.624 768.229 128.658C763.811 127.691 760.036 126.644 756.903 125.517C753.77 124.389 751.2 123.06 749.191 121.53C747.183 120 745.697 118.228 744.733 116.215C743.85 114.121 743.408 111.664 743.408 108.846C743.408 106.671 743.85 104.617 744.733 102.685C745.697 100.752 747.023 98.9799 748.709 97.3691C750.396 95.6779 752.485 94.1879 754.975 92.8993C757.465 91.5302 760.237 90.3624 763.289 89.396C766.422 88.4295 769.796 87.7047 773.41 87.2215C777.106 86.7383 781.042 86.4967 785.219 86.4967C792.769 86.4967 799.557 87.3423 805.582 89.0336C811.606 90.7248 816.707 93.1812 820.884 96.4027C825.061 99.5436 828.234 103.409 830.403 108C832.652 112.51 833.777 117.664 833.777 123.463H942.22C942.22 104.134 938.726 86.8591 931.737 71.6376C924.749 56.3356 914.627 43.3691 901.373 32.7382C888.119 22.1074 871.853 14.0134 852.574 8.45637C833.375 2.81879 811.526 0 787.026 0Z" fill="#0B0A0A"/>
<path d="M966.819 7.24832V352.752H1216.48V260.94H1075.5L1081.29 266.98V215.758L1075.5 221.799H1199.61V138.443H1075.5L1081.29 144.483V93.0201L1075.5 99.0604H1212.86V7.24832H966.819Z" fill="#0B0A0A"/>
<path d="M1232.75 7.24832V352.752H1482.41V260.94H1341.43L1347.22 266.98V215.758L1341.43 221.799H1465.54V138.443H1341.43L1347.22 144.483V93.0201L1341.43 99.0604H1478.79V7.24832H1232.75Z" fill="#0B0A0A"/>
<path d="M1498.68 7.24832V352.752H1748.34V260.94H1607.36L1613.15 266.98V215.758L1607.36 221.799H1731.47V138.443H1607.36L1613.15 144.483V93.0201L1607.36 99.0604H1744.72V7.24832H1498.68Z" fill="#0B0A0A"/>
<path d="M2094.64 7.24832H1986.2V210.443L1986.68 210.322L1918.6 7.24832H1764.61V352.752H1873.05V128.054L1872.57 128.174L1947.88 352.752H2094.64V7.24832Z" fill="#0B0A0A"/>
</svg>
